<?xml version="1.0" standalone="no"?>
<!DOCTYPE svg PUBLIC "-//W3C//DTD SVG 1.1//EN" "http://www.w3.org/Graphics/SVG/1.1/DTD/svg11.dtd" >
<svg xmlns="http://www.w3.org/2000/svg">
<metadata>Generated by IcoMoon</metadata>
<defs>
<font id="hue" horiz-adv-x="1024">
<font-face units-per-em="1024" ascent="960" descent="-64" />
<missing-glyph horiz-adv-x="1024" />
<glyph unicode="&#x20;" horiz-adv-x="512" d="" />
<glyph unicode="&#xe3d0;" glyph-name="filter_1" d="M896 234v598h-598v-598h598zM896 918c46 0 86-40 86-86v-598c0-46-40-84-86-84h-598c-46 0-84 38-84 84v598c0 46 38 86 84 86h598zM598 320v342h-86v84h170v-426h-84zM128 746v-682h682v-86h-682c-46 0-86 40-86 86v682h86z" />
<glyph unicode="&#xe3d1;" glyph-name="filter_2" d="M726 406v-86h-256v170c0 48 38 86 84 86h86v86h-170v84h170c46 0 86-36 86-84v-86c0-48-40-86-86-86h-86v-84h172zM896 234v598h-598v-598h598zM896 918c46 0 86-40 86-86v-598c0-46-40-84-86-84h-598c-46 0-84 38-84 84v598c0 46 38 86 84 86h598zM128 746v-682h682v-86h-682c-46 0-86 40-86 86v682h86z" />
<glyph unicode="&#xe3d2;" glyph-name="filter_3" d="M726 406c0-48-40-86-86-86h-170v86h170v84h-86v86h86v86h-170v84h170c46 0 86-36 86-84v-64c0-36-28-64-64-64 36 0 64-28 64-64v-64zM128 746v-682h682v-86h-682c-46 0-86 40-86 86v682h86zM896 234v598h-598v-598h598zM896 918c46 0 86-40 86-86v-598c0-46-40-84-86-84h-598c-46 0-84 38-84 84v598c0 46 38 86 84 86h598z" />
<glyph unicode="&#xe3d4;" glyph-name="filter_4" d="M896 234v598h-598v-598h598zM896 918c46 0 86-40 86-86v-598c0-46-40-84-86-84h-598c-46 0-84 38-84 84v598c0 46 38 86 84 86h598zM640 320v170h-170v256h84v-170h86v170h86v-426h-86zM128 746v-682h682v-86h-682c-46 0-86 40-86 86v682h86z" />
<glyph unicode="&#xe900;" glyph-name="bedroom" d="M981.333 469.333h-938.667c-25.6 0-42.667-17.067-42.667-42.667v-213.333c0-25.6 17.067-42.667 42.667-42.667h85.333v-42.667h42.667v42.667h682.667v-42.667h42.667v42.667h85.333c25.6 0 42.667 17.067 42.667 42.667v213.333c0 25.6-17.067 42.667-42.667 42.667zM810.667 512h128v128c0 72.533-55.467 128-128 128h-597.333c-72.533 0-128-55.467-128-128v-128h128c-25.6 0-42.667 17.067-42.667 42.667s17.067 42.667 42.667 42.667h213.333c25.6 0 42.667-17.067 42.667-42.667s-17.067-42.667-42.667-42.667h170.667c-25.6 0-42.667 17.067-42.667 42.667s17.067 42.667 42.667 42.667h213.333c25.6 0 42.667-17.067 42.667-42.667s-17.067-42.667-42.667-42.667z" />
<glyph unicode="&#xe901;" glyph-name="BSB001" d="M597.333 448c0-47.128-38.205-85.333-85.333-85.333s-85.333 38.205-85.333 85.333c0 47.128 38.205 85.333 85.333 85.333s85.333-38.205 85.333-85.333zM1024 448c0 281.6-230.4 512-512 512v0c-281.6 0-512-230.4-512-512s230.4-512 512-512v0c281.6 0 512 230.4 512 512v0zM512 772.267c21.333 0 38.4-17.067 38.4-38.4s-17.067-38.4-38.4-38.4c-21.333 0-38.4 17.067-38.4 38.4s17.067 38.4 38.4 38.4zM230.4 409.6c-21.333 0-38.4 17.067-38.4 38.4s17.067 38.4 38.4 38.4c21.333 0 38.4-17.067 38.4-38.4s-17.067-38.4-38.4-38.4zM311.467 605.867c-21.333 0-38.4 17.067-38.4 38.4s17.067 38.4 38.4 38.4c21.333 0 38.4-17.067 38.4-38.4 0-17.067-17.067-38.4-38.4-38.4zM512 307.2c-76.8 0-140.8 64-140.8 140.8s64 140.8 140.8 140.8 140.8-64 140.8-140.8-64-140.8-140.8-140.8z" />
<glyph unicode="&#xe902;" glyph-name="BSB002" d="M1024 192v512c0 4.267 0 64-29.867 128-29.867 55.467-93.867 128-226.133 128h-512c0 0-64 0-123.733-29.867s-132.267-93.867-132.267-226.133v-512c0-4.267 0-64 29.867-128 29.867-55.467 93.867-128 226.133-128h512c4.267 0 64 0 128 29.867 55.467 29.867 128 93.867 128 226.133zM507.733 819.2c21.333 0 38.4-17.067 38.4-38.4s-17.067-38.4-38.4-38.4c-21.333 0-38.4 17.067-38.4 38.4s17.067 38.4 38.4 38.4zM247.467 780.8c0 21.333 17.067 38.4 38.4 38.4s38.4-17.067 38.4-38.4c0-21.333-17.067-38.4-38.4-38.4s-38.4 17.067-38.4 38.4zM507.733 251.733c-106.667 0-196.267 85.333-196.267 196.267 0 106.667 85.333 196.267 196.267 196.267 106.667 0 196.267-85.333 196.267-196.267s-85.333-196.267-196.267-196.267zM733.867 742.4c-21.333 0-38.4 17.067-38.4 38.4s17.067 38.4 38.4 38.4c21.333 0 38.4-17.067 38.4-38.4s-17.067-38.4-38.4-38.4zM648.533 443.733c0-77.762-63.038-140.8-140.8-140.8s-140.8 63.038-140.8 140.8c0 77.762 63.038 140.8 140.8 140.8s140.8-63.038 140.8-140.8z" />
<glyph unicode="&#xe903;" glyph-name="carport" d="M917.333 960h-810.667c-59.733 0-106.667-46.933-106.667-106.667v-789.333h42.667v725.333h938.667v-725.333h42.667v789.333c0 59.733-46.933 106.667-106.667 106.667zM853.333-21.333v85.333h42.667c25.6 0 42.667 21.333 42.667 42.667v209.067c0 85.333-85.333 89.6-85.333 89.6l-85.333 256h-512l-85.333-256c-42.667 0-85.333-42.667-85.333-89.6v-209.067c0-25.6 21.333-42.667 42.667-42.667h42.667v-85.333c0-25.6 17.067-42.667 42.667-42.667h42.667c25.6 0 42.667 17.067 42.667 42.667v85.333h426.667v-85.333c0-25.6 17.067-42.667 42.667-42.667h42.667c25.6 0 42.667 17.067 42.667 42.667zM234.667 192c-34.133 0-64 29.867-64 64s29.867 64 64 64 64-29.867 64-64c0-34.133-29.867-64-64-64zM256 405.333l42.667 170.667h426.667l42.667-170.667h-512zM789.333 192c-34.133 0-64 29.867-64 64s29.867 64 64 64 64-29.867 64-64c0-34.133-29.867-64-64-64z" />
<glyph unicode="&#xe904;" glyph-name="driveway" d="M810.667 192h-42.667c-46.933 0-85.333 38.4-85.333 85.333v42.667h-341.333v-42.667c0-46.933-38.4-85.333-85.333-85.333h-42.667c-42.667 0-81.067 42.667-85.333 85.333l-128-174.933v-166.4h1024v170.667l-128 170.667c-4.267-42.667-42.667-85.333-85.333-85.333zM85.333 614.4v-209.067c0-25.6 21.333-42.667 42.667-42.667h42.667v-85.333c0-25.6 17.067-42.667 42.667-42.667h42.667c25.6 0 42.667 17.067 42.667 42.667v85.333h426.667v-85.333c0-25.6 17.067-42.667 42.667-42.667h42.667c25.6 0 42.667 17.067 42.667 42.667v85.333h42.667c25.6 0 42.667 21.333 42.667 42.667v209.067c0 89.6-85.333 89.6-85.333 89.6l-85.333 256h-512l-85.333-256c-42.667 0-85.333-42.667-85.333-89.6zM789.333 618.667c34.133 0 64-29.867 64-64s-29.867-64-64-64-64 29.867-64 64c0 34.133 29.867 64 64 64zM298.667 874.667h426.667l42.667-170.667h-512l42.667 170.667zM234.667 618.667c34.133 0 64-29.867 64-64s-29.867-64-64-64-64 29.867-64 64c0 34.133 29.867 64 64 64z" />
<glyph unicode="&#xe905;" glyph-name="frontdoor" d="M768-21.333c21.333 4.267 42.667 4.267 42.667 42.667v853.333c0 0 0 38.4-42.667 42.667l-341.333 42.667c-4.267 0-4.267 0-8.533 0v0c-17.067 0-34.133-8.533-34.133-42.667v-42.667h-256v-853.333h256v-42.667c0-42.667 21.333-42.667 46.933-42.667l337.067 42.667zM469.333 533.333c0 12.8 8.533 21.333 21.333 21.333s21.333-8.533 21.333-21.333v-170.667c0-12.8-8.533-21.333-21.333-21.333s-21.333 8.533-21.333 21.333v170.667zM384 106.667h-170.667v682.667h170.667v-682.667z" />
<glyph unicode="&#xe906;" glyph-name="garage" d="M1024-21.333v0l-59.733 136.533-89.6 29.867-285.867 285.867 162.133 162.133c38.4-17.067 85.333-25.6 136.533-12.8 42.667 12.8 81.067 42.667 106.667 81.067 34.133 51.2 38.4 98.133 29.867 140.8l-93.867-93.867c-17.067-17.067-42.667-17.067-59.733 0l-89.6 89.6c-17.067 17.067-17.067 42.667 0 59.733l93.867 93.867c-42.667 8.533-93.867 4.267-145.067-34.133-38.4-25.6-64-64-76.8-106.667-12.8-46.933-4.267-93.867 12.8-132.267l-145.067-145.067-162.133 187.733-209.067 209.067c-29.867 29.867-76.8 38.4-115.2 12.8-42.667-29.867-46.933-93.867-12.8-128l213.333-213.333 179.2-157.867-145.067-145.067c-38.4 17.067-85.333 25.6-136.533 12.8-42.667-12.8-81.067-42.667-106.667-81.067-34.133-51.2-38.4-98.133-29.867-140.8l85.333 85.333c17.067 17.067 42.667 17.067 59.733 0l89.6-89.6c17.067-17.067 17.067-42.667 0-59.733l-85.333-85.333c42.667-8.533 93.867-4.267 145.067 34.133 38.4 25.6 64 64 76.8 106.667 12.8 46.933 4.267 93.867-12.8 132.267l162.133 162.133 285.867-285.867 29.867-89.6 149.333-64 42.667 42.667z" />
<glyph unicode="&#xe907;" glyph-name="gym" d="M938.667 533.333v46.933c0 21.333-17.067 38.4-38.4 38.4h-46.933v-341.333h46.933c21.333 0 38.4 17.067 38.4 38.4v46.933c21.333 0 42.667 8.533 59.733 25.6s25.6 38.4 25.6 59.733-8.533 42.667-25.6 59.733c-17.067 17.067-38.4 25.6-59.733 25.6zM768 746.667h-85.333c-25.6 0-42.667-17.067-42.667-42.667v-170.667h-256v170.667c0 25.6-17.067 42.667-42.667 42.667h-85.333c-25.6 0-42.667-17.067-42.667-42.667v-512c0-25.6 17.067-42.667 42.667-42.667h85.333c25.6 0 42.667 17.067 42.667 42.667v170.667h256v-170.667c0-25.6 17.067-42.667 42.667-42.667h85.333c25.6 0 42.667 17.067 42.667 42.667v512c0 25.6-17.067 42.667-42.667 42.667zM85.333 362.667v-46.933c0-21.333 17.067-38.4 38.4-38.4h46.933v341.333h-46.933c-21.333 0-38.4-17.067-38.4-38.4v-46.933c-21.333 0-42.667-8.533-59.733-25.6s-25.6-38.4-25.6-59.733 8.533-42.667 25.6-59.733c17.067-17.067 38.4-25.6 59.733-25.6z" />
<glyph unicode="&#xe908;" glyph-name="HBL003" d="M507.733 678.4c4.267 0 8.533 0 8.533 0 204.8-8.533 315.733-110.933 358.4-162.133h-721.067c132.267 149.333 302.933 162.133 354.133 162.133zM0 217.6c51.2 145.067 179.2 234.667 209.067 251.733h610.133c128-81.067 187.733-204.8 209.067-251.733h-1028.267z" />
<glyph unicode="&#xe909;" glyph-name="HEL001" d="M512 802.133c-273.067 0-499.2-204.8-512-332.8h1024c-12.8 132.267-238.933 332.8-512 332.8zM512 93.867c273.067 0 494.933 213.333 512 332.8h-1024c17.067-115.2 238.933-332.8 512-332.8z" />
<glyph unicode="&#xe90a;" glyph-name="HEL002" d="M512 802.133c-273.067 0-499.2-204.8-512-332.8h1024c-12.8 132.267-238.933 332.8-512 332.8zM512 93.867c273.067 0 494.933 213.333 512 332.8h-1024c17.067-115.2 238.933-332.8 512-332.8z" />
<glyph unicode="&#xe90b;" glyph-name="HIL001" d="M512 157.867c273.067 0 499.2 119.467 512 268.8h-1024c12.8-153.6 238.933-268.8 512-268.8zM512 738.133c-273.067 0-499.2-119.467-512-268.8h1024c-12.8 153.6-238.933 268.8-512 268.8z" />
<glyph unicode="&#xe90c;" glyph-name="HIL002" d="M512 157.867c273.067 0 499.2 119.467 512 268.8h-1024c12.8-153.6 238.933-268.8 512-268.8zM512 738.133c-273.067 0-499.2-119.467-512-268.8h1024c-12.8 153.6-238.933 268.8-512 268.8z" />
<glyph unicode="&#xe90d;" glyph-name="HML001" d="M0 456.533h1024c-102.4-64-324.267-179.2-512-179.2-187.733-4.267-409.6 115.2-512 179.2zM1024 494.933h-1024c102.4 42.667 324.267 123.733 512 123.733 187.733 4.267 409.6-76.8 512-123.733z" />
<glyph unicode="&#xe90e;" glyph-name="HML002" d="M0 456.533h1024c-102.4-64-324.267-179.2-512-179.2-187.733-4.267-409.6 115.2-512 179.2zM1024 494.933h-1024c102.4 42.667 324.267 123.733 512 123.733 187.733 4.267 409.6-76.8 512-123.733z" />
<glyph unicode="&#xe90f;" glyph-name="HML003" d="M0 456.533h1024c-102.4-64-324.267-179.2-512-179.2-187.733-4.267-409.6 115.2-512 179.2zM1024 494.933h-1024c102.4 42.667 324.267 123.733 512 123.733 187.733 4.267 409.6-76.8 512-123.733z" />
<glyph unicode="&#xe910;" glyph-name="HML004" d="M0 456.533h1024c-102.4-64-324.267-179.2-512-179.2-187.733-4.267-409.6 115.2-512 179.2zM1024 494.933h-1024c102.4 42.667 324.267 123.733 512 123.733 187.733 4.267 409.6-76.8 512-123.733z" />
<glyph unicode="&#xe911;" glyph-name="HML005" d="M0 456.533h1024c-102.4-64-324.267-179.2-512-179.2-187.733-4.267-409.6 115.2-512 179.2zM1024 494.933h-1024c102.4 42.667 324.267 123.733 512 123.733 187.733 4.267 409.6-76.8 512-123.733z" />
<glyph unicode="&#xe912;" glyph-name="HML006" d="M512 315.733c-213.333 0-349.867 38.4-371.2 64 21.333 25.6 157.867 64 371.2 64s349.867-38.4 371.2-64c-21.333-25.6-157.867-64-371.2-64zM947.2 371.2c0 0 0 4.267 0 4.267 0 119.467-392.533 123.733-435.2 123.733s-435.2 0-435.2-119.467c0 0 0-4.267 0-4.267-51.2 17.067-76.8 42.667-76.8 64 0 55.467 200.533 140.8 512 140.8s512-81.067 512-140.8c0-21.333-25.6-46.933-76.8-68.267z" />
<glyph unicode="&#xe913;" glyph-name="house" d="M0 405.333h170.667v-469.333h256v298.667h170.667v-298.667h256v469.333h170.667l-512 550.4z" />
<glyph unicode="&#xe914;" glyph-name="kids_bedroom" d="M981.333 426.667h-938.667c-25.6 0-42.667-17.067-42.667-42.667v-170.667c0-25.6 17.067-42.667 42.667-42.667h85.333v-42.667h42.667v42.667h682.667v-42.667h42.667v42.667h85.333c25.6 0 42.667 17.067 42.667 42.667v170.667c0 25.6-17.067 42.667-42.667 42.667zM640 469.333h213.333v166.4c0 72.533-38.4 132.267-110.933 132.267h-422.4c-72.533 0-149.333-59.733-149.333-132.267v-166.4h213.333c-25.6 0-42.667 17.067-42.667 42.667s17.067 42.667 42.667 42.667h256c25.6 0 42.667-17.067 42.667-42.667s-17.067-42.667-42.667-42.667z" />
<glyph unicode="&#xe915;" glyph-name="kitchen" d="M951.467 576h-98.133v42.667h-682.667v-42.667h-98.133c-38.4 0-72.533-34.133-72.533-72.533v-110.933c0-38.4 34.133-72.533 72.533-72.533h98.133v-128c0-72.533 55.467-128 128-128h426.667c72.533 0 128 55.467 128 128v128h98.133c38.4 0 72.533 34.133 72.533 72.533v110.933c0 38.4-34.133 72.533-72.533 72.533zM170.667 405.333h-85.333v85.333h85.333v-85.333zM938.667 405.333h-85.333v85.333h85.333v-85.333zM567.467 832h-110.933c-38.4 0-72.533-21.333-72.533-59.733v-68.267h-213.333v-42.667h682.667v42.667h-213.333v68.267c0 38.4-34.133 59.733-72.533 59.733z" />
<glyph unicode="&#xe916;" glyph-name="LCT001" d="M640.576 192.811c0 0 40.655 273.149 82.504 425.401-71.924-18.856-164.623-22.055-217.948-22.055-79.987 0-155.153 6.698-203.827 17.448 41.252-152.039 81.949-421.476 81.949-421.476s5.844-42.66 43.342-42.66h170.638c0 0 31.568 2.389 43.342 43.342zM248.151 903.433c-67.189-42.788 5.034-170.553 36.559-237.443 0.683-1.536 1.365-2.986 2.005-4.394 75.721-26.662 340.125-36.175 453.428 6.57 0.384 0.768 0.768 1.578 1.152 2.389 32.464 67.999 100.122 191.072 34.384 232.921-72.351 46.030-188.683 56.481-263.209 56.524h-1.152c-74.441-0.043-190.859-10.494-263.167-56.567zM555.043-21.17c43.513 0 42.19 42.66 42.19 42.66v85.319h-170.638v-85.319c0 0-1.792-42.66 41.764-42.66 0 0 0.085-42.83 42.702-42.83h1.45c42.617 0 42.532 42.83 42.532 42.83z" />
<glyph unicode="&#xe917;" glyph-name="LCT002" d="M851.712 871.040c-23.936 56.021-147.243 88.96-339.584 88.96-192.469 0-315.861-32.981-339.627-89.131 51.157-3.797 333.141-22.229 679.211 0.171zM512 98.56v0c-9.941 0-20.736 0.683-31.616 1.451-17.92 0.768-35.797 2.133-53.675 4.181 0.427-31.616 1.195-94.123 0-111.872-0.768-12.117 22.101-26.197 44.032-31.787 18.261-4.736 24.277-14.72 27.819-20.693 0.597-0.981 1.408-2.347 1.621-2.56 0.043 0 2.688-1.28 11.819-1.323v0c9.131 0.085 11.776 1.323 11.819 1.323 0.213 0.256 1.024 1.579 1.579 2.56 3.584 5.973 9.557 15.957 27.819 20.693 21.931 5.589 44.8 19.669 44.032 31.787-1.237 17.707-0.427 80.213 0 111.872-17.92-2.048-35.84-3.413-53.803-4.181-10.795-0.811-21.589-1.451-31.445-1.451zM853.163 828.416c-125.995-8.107-243.797-10.965-345.131-10.965-174.72 0-300.501 8.107-336.981 10.795-1.749-47.488 3.2-67.328 55.936-125.312l20.437-22.443c72.917-80.043 114.517-126.293 121.301-147.157 6.699-20.523 19.371-99.883 19.371-253.269 0-95.061 7.637-118.485 19.115-130.816 69.504-10.368 140.416-10.368 209.835 0.043 11.435 12.331 19.072 35.84 19.072 130.773 0 153.387 12.672 232.704 19.371 253.269 6.784 20.864 48.384 67.115 121.301 147.157l20.437 22.443c52.821 58.069 57.685 77.867 55.936 125.483z" />
<glyph unicode="&#xe918;" glyph-name="LCT003" d="M447.787-64.213h-42.496c-11.776 0-21.291 9.6-21.291 21.376v32.939c0 11.776 9.515 21.376 21.291 21.376h42.539c11.776 0 21.376-9.6 21.376-21.376v-32.939c-0.043-11.776-9.643-21.376-21.419-21.376zM661.12-64.213h-42.539c-11.776 0-21.291 9.6-21.291 21.376v32.939c0 11.776 9.515 21.376 21.291 21.376h42.539c11.776 0 21.376-9.6 21.376-21.376v-32.939c0-11.776-9.6-21.376-21.376-21.376zM522.496 961.237c-231.211 0-418.731-60.203-418.731-134.357s187.477-134.357 418.731-134.357c231.125 0 418.645 60.203 418.645 134.357s-187.477 134.357-418.645 134.357zM522.453 747.349c-190.549 0-345.045 35.541-345.045 79.573 0 43.904 154.496 79.531 345.045 79.531 190.635 0 345.131-35.627 345.131-79.531 0-44.032-154.496-79.573-345.131-79.573zM127.147 729.771c40.875-254.507 162.645-355.541 170.411-362.837 8.363-7.765 33.067-43.435 33.067-75.563v-221.483c0-6.315 88.064-52.053 149.333-52.053h106.112c67.797 0 128.512 45.909 128.512 52.053v221.483c0 37.163 21.845 64.299 32.683 75.563 10.069 10.539 128.213 108.715 167.509 362.667-86.443-54.229-243.157-79.744-393.643-79.744-150.656 0-307.584 25.557-393.984 79.915z" />
<glyph unicode="&#xe919;" glyph-name="LCT007" d="M640.576 192.811c0 0 40.655 273.149 82.504 425.401-71.924-18.856-164.623-22.055-217.948-22.055-79.987 0-155.153 6.698-203.827 17.448 41.252-152.039 81.949-421.476 81.949-421.476s5.844-42.66 43.342-42.66h170.638c0 0 31.568 2.389 43.342 43.342zM248.151 903.433c-67.189-42.788 5.034-170.553 36.559-237.443 0.683-1.536 1.365-2.986 2.005-4.394 75.721-26.662 340.125-36.175 453.428 6.57 0.384 0.768 0.768 1.578 1.152 2.389 32.464 67.999 100.122 191.072 34.384 232.921-72.351 46.030-188.683 56.481-263.209 56.524h-1.152c-74.441-0.043-190.859-10.494-263.167-56.567zM555.043-21.17c43.513 0 42.19 42.66 42.19 42.66v85.319h-170.638v-85.319c0 0-1.792-42.66 41.764-42.66 0 0 0.085-42.83 42.702-42.83h1.45c42.617 0 42.532 42.83 42.532 42.83z" />
<glyph unicode="&#xe91a;" glyph-name="LCT010" d="M640.576 192.811c0 0 40.655 273.149 82.504 425.401-71.924-18.856-164.623-22.055-217.948-22.055-79.987 0-155.153 6.698-203.827 17.448 41.252-152.039 81.949-421.476 81.949-421.476s5.844-42.66 43.342-42.66h170.638c0 0 31.568 2.389 43.342 43.342zM248.151 903.433c-67.189-42.788 5.034-170.553 36.559-237.443 0.683-1.536 1.365-2.986 2.005-4.394 75.721-26.662 340.125-36.175 453.428 6.57 0.384 0.768 0.768 1.578 1.152 2.389 32.464 67.999 100.122 191.072 34.384 232.921-72.351 46.030-188.683 56.481-263.209 56.524h-1.152c-74.441-0.043-190.859-10.494-263.167-56.567zM555.043-21.17c43.513 0 42.19 42.66 42.19 42.66v85.319h-170.638v-85.319c0 0-1.792-42.66 41.764-42.66 0 0 0.085-42.83 42.702-42.83h1.45c42.617 0 42.532 42.83 42.532 42.83z" />
<glyph unicode="&#xe91b;" glyph-name="LCT011" d="M512 849.067c-320 0-401.067-29.867-401.067-29.867 8.533 145.067 401.067 140.8 401.067 140.8s392.533 4.267 401.067-136.533c0 0-72.533 25.6-401.067 25.6zM213.333 618.667h597.333c0 0 72.533 128 85.333 170.667h-768c0 0 34.133-93.867 85.333-170.667zM469.333 576h-213.333c0 0 128-64 128-341.333v-42.667c0 0 0-42.667 42.667-42.667h170.667c42.667 0 42.667 42.667 42.667 42.667v42.667c0 277.333 128 341.333 128 341.333h-298.667zM512-64c-42.667 0-42.667 42.667-42.667 42.667-42.667 0-42.667 42.667-42.667 42.667v85.333h170.667v-85.333c0 0 0-42.667-42.667-42.667 0 0 0-42.667-42.667-42.667z" />
<glyph unicode="&#xe91c;" glyph-name="LCT014" d="M640.576 192.811c0 0 40.655 273.149 82.504 425.401-71.924-18.856-164.623-22.055-217.948-22.055-79.987 0-155.153 6.698-203.827 17.448 41.252-152.039 81.949-421.476 81.949-421.476s5.844-42.66 43.342-42.66h170.638c0 0 31.568 2.389 43.342 43.342zM248.151 903.433c-67.189-42.788 5.034-170.553 36.559-237.443 0.683-1.536 1.365-2.986 2.005-4.394 75.721-26.662 340.125-36.175 453.428 6.57 0.384 0.768 0.768 1.578 1.152 2.389 32.464 67.999 100.122 191.072 34.384 232.921-72.351 46.030-188.683 56.481-263.209 56.524h-1.152c-74.441-0.043-190.859-10.494-263.167-56.567zM555.043-21.17c43.513 0 42.19 42.66 42.19 42.66v85.319h-170.638v-85.319c0 0-1.792-42.66 41.764-42.66 0 0 0.085-42.83 42.702-42.83h1.45c42.617 0 42.532 42.83 42.532 42.83z" />
<glyph unicode="&#xe91d;" glyph-name="LDD001" d="M469.333 576v-384h-213.973c-23.211 0-42.027-19.029-42.027-42.24v-1.109c0-23.168 18.816-41.984 42.027-41.984h513.323c23.211 0 41.984 18.816 41.984 41.984v1.109c0 23.211-18.773 42.24-41.984 42.24h-214.016v384h-85.333zM896 789.333h-768c-83.712 0-128-47.659-128-131.371v-39.296h1024v39.296c0 83.712-44.288 131.371-128 131.371z" />
<glyph unicode="&#xe91e;" glyph-name="LDD002" d="M170.667 832h682.667c0 70.699-57.301 128-128 128h-426.667c-70.699 0-128-57.301-128-128zM768-22.016v1.365c0 23.168-18.773 41.984-41.984 41.984h-171.349v768h-85.333v-768h-171.307c-23.211 0-42.027-18.816-42.027-41.984v-1.365c0-23.168 18.816-41.984 42.027-41.984h427.989c23.211 0 41.984 18.816 41.984 41.984z" />
<glyph unicode="&#xe91f;" glyph-name="LDF001" d="M1006.397 646.82l-531.589 225.659c-2.089 0.901-4.229 1.71-6.359 1.71-2.775 0-5.591-0.594-8.233-2.089l-444.498-250.45c-10.67-6.021-15.698-20.48-15.698-34.898v-173.056l418.212 235.725c15.401 8.704 32.768 13.312 50.217 13.312 13.609 0 26.962-2.734 39.598-8.069l515.881-218.327 0.072 138.977v34.826c-0.020 15.411-5.888 31.724-17.603 36.68zM1024 315.904c-0.102 15.176-5.99 30.28-17.613 35.205l-531.589 224.993c-2.089 0.85-4.219 1.321-6.359 1.321-2.775 0-5.591-0.768-8.233-2.263l-444.498-250.542c-22.139-12.503-20.48-61.614 2.427-70.441l491.090-189.44c1.925-0.768 3.881-1.106 5.847-1.106 2.222 0 4.485 0.471 6.615 1.413l484.987 215.040c11.571 5.12 17.326 20.296 17.316 35.461v0.358z" />
<glyph unicode="&#xe920;" glyph-name="LDF002" d="M1006.397 646.82l-531.589 225.659c-2.089 0.901-4.229 1.71-6.359 1.71-2.775 0-5.591-0.594-8.233-2.089l-444.498-250.45c-10.67-6.021-15.698-20.48-15.698-34.898v-173.056l418.212 235.725c15.401 8.704 32.768 13.312 50.217 13.312 13.609 0 26.962-2.734 39.598-8.069l515.881-218.327 0.072 138.977v34.826c-0.020 15.411-5.888 31.724-17.603 36.68zM1024 315.904c-0.102 15.176-5.99 30.28-17.613 35.205l-531.589 224.993c-2.089 0.85-4.219 1.321-6.359 1.321-2.775 0-5.591-0.768-8.233-2.263l-444.498-250.542c-22.139-12.503-20.48-61.614 2.427-70.441l491.090-189.44c1.925-0.768 3.881-1.106 5.847-1.106 2.222 0 4.485 0.471 6.615 1.413l484.987 215.040c11.571 5.12 17.326 20.296 17.316 35.461v0.358z" />
<glyph unicode="&#xe921;" glyph-name="LDT001" d="M298.667 746.624v-384h-298.667v-42.667h1024v42.667h-298.667v384zM213.333 234.624c0-70.699 57.301-128 128-128h341.333c70.699 0 128 57.301 128 128v42.667h-597.333v-42.667z" />
<glyph unicode="&#xe922;" glyph-name="living" d="M853.333 384v106.667c0 34.133 29.867 64 64 64h64v123.733c0 51.2-38.4 89.6-89.6 89.6h-759.467c-51.2 0-89.6-38.4-89.6-89.6v-123.733h64c34.133 0 64-29.867 64-64v-106.667h682.667zM981.333 512v0h-64c-12.8 0-21.333-8.533-21.333-21.333v-149.333h-768v149.333c0 12.8-8.533 21.333-21.333 21.333h-64c-25.6 0-42.667-17.067-42.667-42.667v-213.333c0-46.933 38.4-85.333 85.333-85.333h42.667v-42.667h42.667v42.667h682.667v-42.667h42.667v42.667h42.667c46.933 0 85.333 38.4 85.333 85.333v213.333c0 25.6-17.067 42.667-42.667 42.667z" />
<glyph unicode="&#xe923;" glyph-name="LLC006" d="M456.533 217.6c-64-34.133-119.467-93.867-145.067-123.733 4.267-12.8 8.533-25.6-4.267-29.867-25.6-21.333-68.267-8.533-110.933 25.6s-34.133 76.8-21.333 89.6c4.267 4.267 12.8 4.267 21.333 4.267 46.933 46.933 68.267 115.2 85.333 174.933-136.533 128-187.733 238.933-204.8 311.467-51.2-98.133-85.333-213.333-72.533-324.267 29.867-268.8 273.067-384 388.267-396.8 72.533-8.533 153.6 0 230.4 29.867 68.267 25.6 132.267 72.533 192 123.733-8.533 0-17.067 0-25.6 0-68.267-8.533-179.2 17.067-332.8 115.2zM477.867 456.533v0 0c-157.867 119.467-264.533 264.533-294.4 375.467-21.333-29.867-42.667-59.733-68.267-93.867 0-4.267-4.267-12.8-8.533-17.067 4.267-42.667 25.6-209.067 285.867-409.6 256-196.267 409.6-192 477.867-157.867 4.267 4.267 4.267 4.267 8.533 8.533 25.6 25.6 46.933 55.467 68.267 85.333-4.267 0-8.533 0-17.067 0-115.2 0-268.8 68.267-452.267 209.067zM802.133 733.867c-179.2 153.6-345.6 226.133-443.733 226.133-93.867 0-98.133-46.933-98.133-76.8 4.267-85.333 106.667-234.667 264.533-358.4 311.467-234.667 460.8-213.333 490.667-153.6 34.133 72.533-59.733 230.4-213.333 362.667zM814.933 490.667c-17.067-29.867-89.6-38.4-243.2 81.067-81.067 64-123.733 123.733-128 170.667 0 12.8-4.267 46.933 42.667 46.933 51.2 0 132.267-34.133 221.867-115.2 46.933-34.133 132.267-123.733 106.667-183.467z" />
<glyph unicode="&#xe924;" glyph-name="LLC007" d="M110.933 81.067v0c8.533-34.133 38.4-55.467 68.267-64 25.6-4.267 42.667 0 110.933 8.533 55.467 8.533 123.733 0 149.333 0-157.867 89.6-273.067 217.6-341.333 315.733 4.267-29.867 12.8-89.6 12.8-145.067 0-72.533-8.533-89.6 0-115.2zM68.267 486.4c8.533-29.867 174.933-349.867 516.267-482.133l166.4-29.867c-128 59.733-277.333 162.133-413.867 290.133-123.733 119.467-234.667 251.733-302.933 371.2 8.533-42.667 29.867-128 34.133-149.333zM635.733 593.067c-302.933 285.867-546.133 388.267-618.667 311.467-38.4-38.4-12.8-128 51.2-238.933-21.333 55.467-25.6 106.667 4.267 140.8 12.8 17.067 38.4 34.133 85.333 34.133 110.933 0 281.6-102.4 460.8-268.8 153.6-145.067 384-418.133 290.133-524.8-12.8-12.8-34.133-29.867-76.8-29.867-29.867 0-64 8.533-106.667 25.6 132.267-68.267 243.2-93.867 281.6-51.2 72.533 76.8-102.4 358.4-371.2 601.6zM384 315.733c170.667-153.6 354.133-256 448-256 21.333 0 34.133 4.267 46.933 17.067 51.2 59.733-85.333 268.8-290.133 465.067-183.467 170.667-341.333 251.733-430.933 251.733-25.6 0-42.667-8.533-55.467-17.067-51.2-59.733 76.8-273.067 281.6-460.8zM277.333 584.533c25.6 29.867 136.533-25.6 243.2-123.733s170.667-200.533 140.8-230.4c-25.6-29.867-136.533 25.6-243.2 123.733-102.4 98.133-166.4 200.533-140.8 230.4z" />
<glyph unicode="&#xe925;" glyph-name="LLC010" d="M456.533 217.6c-64-34.133-119.467-93.867-145.067-123.733 4.267-12.8 8.533-25.6-4.267-29.867-25.6-21.333-68.267-8.533-110.933 25.6s-34.133 76.8-21.333 89.6c4.267 4.267 12.8 4.267 21.333 4.267 46.933 46.933 68.267 115.2 85.333 174.933-136.533 128-187.733 238.933-204.8 311.467-51.2-98.133-85.333-213.333-72.533-324.267 29.867-268.8 273.067-384 388.267-396.8 72.533-8.533 153.6 0 230.4 29.867 68.267 25.6 132.267 72.533 192 123.733-8.533 0-17.067 0-25.6 0-68.267-8.533-179.2 17.067-332.8 115.2zM477.867 456.533v0 0c-157.867 119.467-264.533 264.533-294.4 375.467-21.333-29.867-42.667-59.733-68.267-93.867 0-4.267-4.267-12.8-8.533-17.067 4.267-42.667 25.6-209.067 285.867-409.6 256-196.267 409.6-192 477.867-157.867 4.267 4.267 4.267 4.267 8.533 8.533 25.6 25.6 46.933 55.467 68.267 85.333-4.267 0-8.533 0-17.067 0-115.2 0-268.8 68.267-452.267 209.067zM802.133 733.867c-179.2 153.6-345.6 226.133-443.733 226.133-93.867 0-98.133-46.933-98.133-76.8 4.267-85.333 106.667-234.667 264.533-358.4 311.467-234.667 460.8-213.333 490.667-153.6 34.133 72.533-59.733 230.4-213.333 362.667zM814.933 490.667c-17.067-29.867-89.6-38.4-243.2 81.067-81.067 64-123.733 123.733-128 170.667 0 12.8-4.267 46.933 42.667 46.933 51.2 0 132.267-34.133 221.867-115.2 46.933-34.133 132.267-123.733 106.667-183.467z" />
<glyph unicode="&#xe926;" glyph-name="LLC011" d="M247.467 183.467v0 0c-29.867 29.867-55.467 59.733-76.8 85.333l-162.133-174.933c0 0-21.333-21.333 4.267-29.867s106.667-38.4 311.467-25.6c29.867 0 76.8 4.267 98.133 17.067-76.8 42.667-136.533 93.867-166.4 119.467l-8.533 8.533zM81.067 746.667c-29.867-123.733-25.6-320 196.267-537.6 51.2-46.933 213.333-196.267 430.933-217.6 76.8-8.533 119.467 0 183.467 25.6 0 0 0 0 0 0-140.8 17.067-345.6 128-503.467 281.6-166.4 153.6-277.333 320-307.2 448zM725.333 614.4c-230.4 221.867-499.2 349.867-580.267 268.8-89.6-85.333 34.133-332.8 268.8-558.933 234.667-221.867 507.733-315.733 584.533-247.467 81.067 76.8-38.4 315.733-273.067 537.6zM866.133 209.067c-55.467-46.933-230.4 21.333-388.267 170.667-157.867 153.6-251.733 315.733-192 379.733 51.2 51.2 234.667-34.133 396.8-183.467s238.933-320 183.467-366.933z" />
<glyph unicode="&#xe927;" glyph-name="LLC012" d="M247.467 183.467v0 0c-29.867 29.867-55.467 59.733-76.8 85.333l-162.133-174.933c0 0-21.333-21.333 4.267-29.867s106.667-38.4 311.467-25.6c29.867 0 76.8 4.267 98.133 17.067-76.8 42.667-136.533 93.867-166.4 119.467l-8.533 8.533zM81.067 746.667c-29.867-123.733-25.6-320 196.267-537.6 51.2-46.933 213.333-196.267 430.933-217.6 76.8-8.533 119.467 0 183.467 25.6 0 0 0 0 0 0-140.8 17.067-345.6 128-503.467 281.6-166.4 153.6-277.333 320-307.2 448zM725.333 614.4c-230.4 221.867-499.2 349.867-580.267 268.8-89.6-85.333 34.133-332.8 268.8-558.933 234.667-221.867 507.733-315.733 584.533-247.467 81.067 76.8-38.4 315.733-273.067 537.6zM866.133 209.067c-55.467-46.933-230.4 21.333-388.267 170.667-157.867 153.6-251.733 315.733-192 379.733 51.2 51.2 234.667-34.133 396.8-183.467s238.933-320 183.467-366.933z" />
<glyph unicode="&#xe928;" glyph-name="LLC013" d="M396.8 170.667c-21.333-17.067-38.4-38.4-42.667-42.667s-34.133-25.6-8.533-42.667c25.6-17.067 68.267-34.133 153.6-34.133 4.267 0 4.267 0 8.533 0-17.067 12.8-29.867 25.6-46.933 38.4-21.333 29.867-46.933 55.467-64 81.067zM951.467 401.067c-85.333 115.2-149.333 162.133-183.467 183.467-4.267 4.267-17.067 12.8-4.267 12.8s76.8-8.533 76.8 64c0 72.533-85.333 166.4-170.667 209.067-85.333 38.4-157.867 12.8-145.067-55.467s72.533-128 102.4-153.6c4.267-4.267 12.8-12.8-4.267-8.533s-89.6 21.333-145.067 4.267c-51.2-12.8-68.267-42.667-72.533-51.2 0-4.267-4.267-8.533-12.8 4.267-4.267 8.533-34.133 102.4-149.333 166.4-64 38.4-166.4 68.267-221.867 12.8s21.333-183.467 68.267-221.867c51.2-38.4 162.133-119.467 264.533-76.8v0c-4.267-46.933-29.867-204.8 140.8-366.933s409.6-136.533 494.933-34.133v0c72.533 72.533 17.067 238.933-38.4 311.467zM964.267 102.4c-119.467-98.133-311.467 25.6-392.533 98.133-273.067 268.8-149.333 418.133-89.6 435.2 72.533 29.867 187.733-4.267 268.8-59.733 85.333-55.467 140.8-128 153.6-145.067 25.6-25.6 174.933-230.4 59.733-328.533zM516.267 567.467c-46.933-17.067-145.067-136.533 72.533-354.133 64-55.467 221.867-153.6 315.733-76.8s-25.6 243.2-42.667 268.8c-8.533 12.8-55.467 72.533-123.733 115.2-72.533 42.667-162.133 68.267-221.867 46.933z" />
<glyph unicode="&#xe929;" glyph-name="LLC020" d="M192-12.8c25.6-17.067 64-17.067 93.867 4.267-42.667 25.6-85.333 59.733-119.467 93.867-8.533-38.4 0-76.8 25.6-98.133zM763.733 640c187.733-230.4 277.333-465.067 204.8-524.8s-285.867 76.8-469.333 307.2c-187.733 230.4-281.6 465.067-204.8 524.8 72.533 59.733 281.6-76.8 469.333-307.2zM426.667 366.933c-93.867 119.467-170.667 243.2-213.333 349.867-34.133 85.333-42.667 153.6-34.133 200.533-110.933-123.733-247.467-362.667-46.933-716.8 85.333-140.8 281.6-260.267 494.933-264.533 106.667 0 204.8 29.867 285.867 76.8-149.333 4.267-349.867 183.467-486.4 354.133z" />
<glyph unicode="&#xe92a;" glyph-name="LST001" d="M708.267 960h-708.267v-213.333h721.067c0 0 260.267 17.067 302.933-200.533v196.267c0 0 8.533 217.6-315.733 217.6zM128 832h-42.667v42.667h42.667v-42.667zM341.333 832h-42.667v42.667h42.667v-42.667zM554.667 832h-42.667v42.667h42.667v-42.667zM768 832h-42.667v42.667h42.667v-42.667zM938.667 759.467l-29.867 29.867 29.867 29.867 29.867-29.867-29.867-29.867zM307.2 149.333c0 0-264.533-17.067-307.2 200.533v-196.267c0 0-4.267-217.6 315.733-217.6h708.267v213.333h-716.8zM85.333 76.8l-29.867 29.867 29.867 29.867 29.867-29.867-29.867-29.867zM298.667 21.333h-42.667v42.667h42.667v-42.667zM512 21.333h-42.667v42.667h42.667v-42.667zM725.333 21.333h-42.667v42.667h42.667v-42.667zM938.667 21.333h-42.667v42.667h42.667v-42.667zM230.4 302.933c-51.2-17.067-85.333-29.867-102.4-55.467 0 0-4.267-8.533-4.267-17.067 0 0 0 0 0 0-8.533 4.267-12.8 8.533-21.333 17.067-34.133 34.133-59.733 76.8-59.733 128 0 8.533 0 21.333 4.267 34.133 4.267 21.333 12.8 42.667 21.333 59.733 0 0 0 0 0 0 93.867 76.8 264.533 76.8 264.533 76.8l221.867 17.067c89.6 8.533 183.467 17.067 238.933 29.867 59.733 12.8 89.6 38.4 102.4 68.267v0c0 0 0 0 0 0s0 0 0 0 4.267-4.267 12.8-12.8c42.667-34.133 72.533-85.333 72.533-145.067 0-4.267 0-12.8 0-17.067 0-17.067-4.267-34.133-12.8-51.2 0 0 0 0 0 0v0c-93.867-85.333-277.333-85.333-277.333-85.333s-426.667-34.133-460.8-46.933z" />
<glyph unicode="&#xe92b;" glyph-name="LST002" d="M708.267 960h-708.267v-213.333h721.067c0 0 260.267 17.067 302.933-200.533v196.267c0 0 8.533 217.6-315.733 217.6zM128 832h-42.667v42.667h42.667v-42.667zM341.333 832h-42.667v42.667h42.667v-42.667zM554.667 832h-42.667v42.667h42.667v-42.667zM768 832h-42.667v42.667h42.667v-42.667zM938.667 759.467l-29.867 29.867 29.867 29.867 29.867-29.867-29.867-29.867zM307.2 149.333c0 0-264.533-17.067-307.2 200.533v-196.267c0 0-4.267-217.6 315.733-217.6h708.267v213.333h-716.8zM85.333 76.8l-29.867 29.867 29.867 29.867 29.867-29.867-29.867-29.867zM298.667 21.333h-42.667v42.667h42.667v-42.667zM512 21.333h-42.667v42.667h42.667v-42.667zM725.333 21.333h-42.667v42.667h42.667v-42.667zM938.667 21.333h-42.667v42.667h42.667v-42.667zM230.4 302.933c-51.2-17.067-85.333-29.867-102.4-55.467 0 0-4.267-8.533-4.267-17.067 0 0 0 0 0 0-8.533 4.267-12.8 8.533-21.333 17.067-34.133 34.133-59.733 76.8-59.733 128 0 8.533 0 21.333 4.267 34.133 4.267 21.333 12.8 42.667 21.333 59.733 0 0 0 0 0 0 93.867 76.8 264.533 76.8 264.533 76.8l221.867 17.067c89.6 8.533 183.467 17.067 238.933 29.867 59.733 12.8 89.6 38.4 102.4 68.267v0c0 0 0 0 0 0s0 0 0 0 4.267-4.267 12.8-12.8c42.667-34.133 72.533-85.333 72.533-145.067 0-4.267 0-12.8 0-17.067 0-17.067-4.267-34.133-12.8-51.2 0 0 0 0 0 0v0c-93.867-85.333-277.333-85.333-277.333-85.333s-426.667-34.133-460.8-46.933z" />
<glyph unicode="&#xe92c;" glyph-name="LTC001" d="M1006.397 646.82l-531.589 225.659c-2.089 0.901-4.229 1.71-6.359 1.71-2.775 0-5.591-0.594-8.233-2.089l-444.498-250.45c-10.67-6.021-15.698-20.48-15.698-34.898v-173.056l418.212 235.725c15.401 8.704 32.768 13.312 50.217 13.312 13.609 0 26.962-2.734 39.598-8.069l515.881-218.327 0.072 138.977v34.826c-0.020 15.411-5.888 31.724-17.603 36.68zM1024 315.904c-0.102 15.176-5.99 30.28-17.613 35.205l-531.589 224.993c-2.089 0.85-4.219 1.321-6.359 1.321-2.775 0-5.591-0.768-8.233-2.263l-444.498-250.542c-22.139-12.503-20.48-61.614 2.427-70.441l491.090-189.44c1.925-0.768 3.881-1.106 5.847-1.106 2.222 0 4.485 0.471 6.615 1.413l484.987 215.040c11.571 5.12 17.326 20.296 17.316 35.461v0.358z" />
<glyph unicode="&#xe92d;" glyph-name="LTC002" d="M1006.397 646.82l-531.589 225.659c-2.089 0.901-4.229 1.71-6.359 1.71-2.775 0-5.591-0.594-8.233-2.089l-444.498-250.45c-10.67-6.021-15.698-20.48-15.698-34.898v-173.056l418.212 235.725c15.401 8.704 32.768 13.312 50.217 13.312 13.609 0 26.962-2.734 39.598-8.069l515.881-218.327 0.072 138.977v34.826c-0.020 15.411-5.888 31.724-17.603 36.68zM1024 315.904c-0.102 15.176-5.99 30.28-17.613 35.205l-531.589 224.993c-2.089 0.85-4.219 1.321-6.359 1.321-2.775 0-5.591-0.768-8.233-2.263l-444.498-250.542c-22.139-12.503-20.48-61.614 2.427-70.441l491.090-189.44c1.925-0.768 3.881-1.106 5.847-1.106 2.222 0 4.485 0.471 6.615 1.413l484.987 215.040c11.571 5.12 17.326 20.296 17.316 35.461v0.358z" />
<glyph unicode="&#xe92e;" glyph-name="LTC003" d="M1024 298.373c-0.184 105.411-200.376 190.792-511.99 190.792-309.125 0-512-85.463-512-190.935s231.342-190.935 512-190.935c280.545 0 511.805 85.391 511.99 190.802v0.276zM1024 452.884v116.439c0 121.17-200.233 219.392-512 219.392-309.074 0-512-98.222-512-219.392v-116.439c85.33 76.626 278.702 121.6 512 121.6s426.67-44.974 512-121.6z" />
<glyph unicode="&#xe92f;" glyph-name="LTD001" d="M1024 298.373c-0.184 105.411-200.376 190.792-511.99 190.792-309.125 0-512-85.463-512-190.935s231.342-190.935 512-190.935c280.545 0 511.805 85.391 511.99 190.802v0.276zM1024 452.884v116.439c0 121.17-200.233 219.392-512 219.392-309.074 0-512-98.222-512-219.392v-116.439c85.33 76.626 278.702 121.6 512 121.6s426.67-44.974 512-121.6z" />
<glyph unicode="&#xe930;" glyph-name="LTD002" d="M1024 298.373c-0.184 105.411-200.376 190.792-511.99 190.792-309.125 0-512-85.463-512-190.935s231.342-190.935 512-190.935c280.545 0 511.805 85.391 511.99 190.802v0.276zM1024 452.884v116.439c0 121.17-200.233 219.392-512 219.392-309.074 0-512-98.222-512-219.392v-116.439c85.33 76.626 278.702 121.6 512 121.6s426.67-44.974 512-121.6z" />
<glyph unicode="&#xe931;" glyph-name="LTD003" d="M896 192h-768c-70.699 0-128-57.301-128-128v-42.667h1024v42.667c0 70.699-57.301 128-128 128zM469.333 918.144h85.333v-681.344h-85.333v681.344z" />
<glyph unicode="&#xe932;" glyph-name="LTF001" d="M1006.397 646.82l-531.589 225.659c-2.089 0.901-4.229 1.71-6.359 1.71-2.775 0-5.591-0.594-8.233-2.089l-444.498-250.45c-10.67-6.021-15.698-20.48-15.698-34.898v-173.056l418.212 235.725c15.401 8.704 32.768 13.312 50.217 13.312 13.609 0 26.962-2.734 39.598-8.069l515.881-218.327 0.072 138.977v34.826c-0.020 15.411-5.888 31.724-17.603 36.68zM1024 315.904c-0.102 15.176-5.99 30.28-17.613 35.205l-531.589 224.993c-2.089 0.85-4.219 1.321-6.359 1.321-2.775 0-5.591-0.768-8.233-2.263l-444.498-250.542c-22.139-12.503-20.48-61.614 2.427-70.441l491.090-189.44c1.925-0.768 3.881-1.106 5.847-1.106 2.222 0 4.485 0.471 6.615 1.413l484.987 215.040c11.571 5.12 17.326 20.296 17.316 35.461v0.358z" />
<glyph unicode="&#xe933;" glyph-name="LTF002" d="M1006.397 646.82l-531.589 225.659c-2.089 0.901-4.229 1.71-6.359 1.71-2.775 0-5.591-0.594-8.233-2.089l-444.498-250.45c-10.67-6.021-15.698-20.48-15.698-34.898v-173.056l418.212 235.725c15.401 8.704 32.768 13.312 50.217 13.312 13.609 0 26.962-2.734 39.598-8.069l515.881-218.327 0.072 138.977v34.826c-0.020 15.411-5.888 31.724-17.603 36.68zM1024 315.904c-0.102 15.176-5.99 30.28-17.613 35.205l-531.589 224.993c-2.089 0.85-4.219 1.321-6.359 1.321-2.775 0-5.591-0.768-8.233-2.263l-444.498-250.542c-22.139-12.503-20.48-61.614 2.427-70.441l491.090-189.44c1.925-0.768 3.881-1.106 5.847-1.106 2.222 0 4.485 0.471 6.615 1.413l484.987 215.040c11.571 5.12 17.326 20.296 17.316 35.461v0.358z" />
<glyph unicode="&#xe934;" glyph-name="LTP001" d="M469.333 918.144h85.333v-681.344h-85.333v681.344zM938.667 192h-853.333c-47.147 0-85.333-38.187-85.333-85.333s38.187-85.333 85.333-85.333h853.333c47.147 0 85.333 38.187 85.333 85.333s-38.187 85.333-85.333 85.333z" />
<glyph unicode="&#xe935;" glyph-name="LTP002" d="M896 192h-768c-70.699 0-128-57.301-128-128v-42.667h1024v42.667c0 70.699-57.301 128-128 128zM469.333 918.144h85.333v-681.344h-85.333v681.344z" />
<glyph unicode="&#xe936;" glyph-name="LTP003" d="M0 192h1024v-170.709h-1024v170.709zM469.333 918.101h85.333v-682.667h-85.333v682.667z" />
<glyph unicode="&#xe937;" glyph-name="LTW001" d="M640.576 192.811c0 0 40.655 273.149 82.504 425.401-71.924-18.856-164.623-22.055-217.948-22.055-79.987 0-155.153 6.698-203.827 17.448 41.252-152.039 81.949-421.476 81.949-421.476s5.844-42.66 43.342-42.66h170.638c0 0 31.568 2.389 43.342 43.342zM248.151 903.433c-67.189-42.788 5.034-170.553 36.559-237.443 0.683-1.536 1.365-2.986 2.005-4.394 75.721-26.662 340.125-36.175 453.428 6.57 0.384 0.768 0.768 1.578 1.152 2.389 32.464 67.999 100.122 191.072 34.384 232.921-72.351 46.030-188.683 56.481-263.209 56.524h-1.152c-74.441-0.043-190.859-10.494-263.167-56.567zM555.043-21.17c43.513 0 42.19 42.66 42.19 42.66v85.319h-170.638v-85.319c0 0-1.792-42.66 41.764-42.66 0 0 0.085-42.83 42.702-42.83h1.45c42.617 0 42.532 42.83 42.532 42.83z" />
<glyph unicode="&#xe938;" glyph-name="LTW004" d="M640.576 192.811c0 0 40.655 273.149 82.504 425.401-71.924-18.856-164.623-22.055-217.948-22.055-79.987 0-155.153 6.698-203.827 17.448 41.252-152.039 81.949-421.476 81.949-421.476s5.844-42.66 43.342-42.66h170.638c0 0 31.568 2.389 43.342 43.342zM248.151 903.433c-67.189-42.788 5.034-170.553 36.559-237.443 0.683-1.536 1.365-2.986 2.005-4.394 75.721-26.662 340.125-36.175 453.428 6.57 0.384 0.768 0.768 1.578 1.152 2.389 32.464 67.999 100.122 191.072 34.384 232.921-72.351 46.030-188.683 56.481-263.209 56.524h-1.152c-74.441-0.043-190.859-10.494-263.167-56.567zM555.043-21.17c43.513 0 42.19 42.66 42.19 42.66v85.319h-170.638v-85.319c0 0-1.792-42.66 41.764-42.66 0 0 0.085-42.83 42.702-42.83h1.45c42.617 0 42.532 42.83 42.532 42.83z" />
<glyph unicode="&#xe939;" glyph-name="LTW010" d="M640.576 192.811c0 0 40.655 273.149 82.504 425.401-71.924-18.856-164.623-22.055-217.948-22.055-79.987 0-155.153 6.698-203.827 17.448 41.252-152.039 81.949-421.476 81.949-421.476s5.844-42.66 43.342-42.66h170.638c0 0 31.568 2.389 43.342 43.342zM248.151 903.433c-67.189-42.788 5.034-170.553 36.559-237.443 0.683-1.536 1.365-2.986 2.005-4.394 75.721-26.662 340.125-36.175 453.428 6.57 0.384 0.768 0.768 1.578 1.152 2.389 32.464 67.999 100.122 191.072 34.384 232.921-72.351 46.030-188.683 56.481-263.209 56.524h-1.152c-74.441-0.043-190.859-10.494-263.167-56.567zM555.043-21.17c43.513 0 42.19 42.66 42.19 42.66v85.319h-170.638v-85.319c0 0-1.792-42.66 41.764-42.66 0 0 0.085-42.83 42.702-42.83h1.45c42.617 0 42.532 42.83 42.532 42.83z" />
<glyph unicode="&#xe93a;" glyph-name="LTW015" d="M640.576 192.811c0 0 40.655 273.149 82.504 425.401-71.924-18.856-164.623-22.055-217.948-22.055-79.987 0-155.153 6.698-203.827 17.448 41.252-152.039 81.949-421.476 81.949-421.476s5.844-42.66 43.342-42.66h170.638c0 0 31.568 2.389 43.342 43.342zM248.151 903.433c-67.189-42.788 5.034-170.553 36.559-237.443 0.683-1.536 1.365-2.986 2.005-4.394 75.721-26.662 340.125-36.175 453.428 6.57 0.384 0.768 0.768 1.578 1.152 2.389 32.464 67.999 100.122 191.072 34.384 232.921-72.351 46.030-188.683 56.481-263.209 56.524h-1.152c-74.441-0.043-190.859-10.494-263.167-56.567zM555.043-21.17c43.513 0 42.19 42.66 42.19 42.66v85.319h-170.638v-85.319c0 0-1.792-42.66 41.764-42.66 0 0 0.085-42.83 42.702-42.83h1.45c42.617 0 42.532 42.83 42.532 42.83z" />
<glyph unicode="&#xe93b;" glyph-name="LWB004" d="M640.576 192.811c0 0 40.655 273.149 82.504 425.401-71.924-18.856-164.623-22.055-217.948-22.055-79.987 0-155.153 6.698-203.827 17.448 41.252-152.039 81.949-421.476 81.949-421.476s5.844-42.66 43.342-42.66h170.638c0 0 31.568 2.389 43.342 43.342zM248.151 903.433c-67.189-42.788 5.034-170.553 36.559-237.443 0.683-1.536 1.365-2.986 2.005-4.394 75.721-26.662 340.125-36.175 453.428 6.57 0.384 0.768 0.768 1.578 1.152 2.389 32.464 67.999 100.122 191.072 34.384 232.921-72.351 46.030-188.683 56.481-263.209 56.524h-1.152c-74.441-0.043-190.859-10.494-263.167-56.567zM555.043-21.17c43.513 0 42.19 42.66 42.19 42.66v85.319h-170.638v-85.319c0 0-1.792-42.66 41.764-42.66 0 0 0.085-42.83 42.702-42.83h1.45c42.617 0 42.532 42.83 42.532 42.83z" />
<glyph unicode="&#xe93c;" glyph-name="LWB006" d="M640.576 192.811c0 0 40.655 273.149 82.504 425.401-71.924-18.856-164.623-22.055-217.948-22.055-79.987 0-155.153 6.698-203.827 17.448 41.252-152.039 81.949-421.476 81.949-421.476s5.844-42.66 43.342-42.66h170.638c0 0 31.568 2.389 43.342 43.342zM248.151 903.433c-67.189-42.788 5.034-170.553 36.559-237.443 0.683-1.536 1.365-2.986 2.005-4.394 75.721-26.662 340.125-36.175 453.428 6.57 0.384 0.768 0.768 1.578 1.152 2.389 32.464 67.999 100.122 191.072 34.384 232.921-72.351 46.030-188.683 56.481-263.209 56.524h-1.152c-74.441-0.043-190.859-10.494-263.167-56.567zM555.043-21.17c43.513 0 42.19 42.66 42.19 42.66v85.319h-170.638v-85.319c0 0-1.792-42.66 41.764-42.66 0 0 0.085-42.83 42.702-42.83h1.45c42.617 0 42.532 42.83 42.532 42.83z" />
<glyph unicode="&#xe93d;" glyph-name="LWB010" d="M512-64c-42.667 0-42.667 42.667-42.667 42.667-42.667 0-42.667 42.667-42.667 42.667v42.667h170.667v-42.667c0 0 0-42.667-42.667-42.667 0 0 0-42.667-42.667-42.667zM793.6 597.333c12.8 29.867 17.067 59.733 17.067 89.6 0 187.733-132.267 273.067-298.667 273.067v0c-166.4 0-298.667-85.333-298.667-273.067 0-29.867 4.267-64 17.067-89.6 89.6 12.8 183.467 21.333 281.6 21.333s192-8.533 281.6-21.333zM247.467 554.667c0 0 64-136.533 81.067-179.2 25.6-55.467 25.6-140.8 25.6-140.8s-4.267-17.067 25.6-93.867c4.267-8.533 12.8-12.8 21.333-12.8h226.133c8.533 0 17.067 4.267 21.333 12.8 25.6 72.533 21.333 93.867 21.333 93.867s0 76.8 25.6 128c17.067 42.667 81.067 183.467 81.067 187.733-85.333 12.8-170.667 25.6-264.533 25.6-89.6 0-179.2-8.533-264.533-21.333z" />
<glyph unicode="&#xe93e;" glyph-name="LWB014" d="M512-64c-42.667 0-42.667 42.667-42.667 42.667-42.667 0-42.667 42.667-42.667 42.667v42.667h170.667v-42.667c0 0 0-42.667-42.667-42.667 0 0 0-42.667-42.667-42.667zM793.6 597.333c12.8 29.867 17.067 59.733 17.067 89.6 0 187.733-132.267 273.067-298.667 273.067v0c-166.4 0-298.667-85.333-298.667-273.067 0-29.867 4.267-64 17.067-89.6 89.6 12.8 183.467 21.333 281.6 21.333s192-8.533 281.6-21.333zM247.467 554.667c0 0 64-136.533 81.067-179.2 25.6-55.467 25.6-140.8 25.6-140.8s-4.267-17.067 25.6-93.867c4.267-8.533 12.8-12.8 21.333-12.8h226.133c8.533 0 17.067 4.267 21.333 12.8 25.6 72.533 21.333 93.867 21.333 93.867s0 76.8 25.6 128c17.067 42.667 81.067 183.467 81.067 187.733-85.333 12.8-170.667 25.6-264.533 25.6-89.6 0-179.2-8.533-264.533-21.333z" />
<glyph unicode="&#xe93f;" glyph-name="MWM001" d="M298.667 746.624v-384h-298.667v-42.667h1024v42.667h-298.667v384zM213.333 234.624c0-70.699 57.301-128 128-128h341.333c70.699 0 128 57.301 128 128v42.667h-597.333v-42.667z" />
<glyph unicode="&#xe940;" glyph-name="other" d="M768 917.333l-341.333 42.667c-21.333 0-42.667 0-42.667-42.667v-42.667h-256v-853.333h256v-42.667c0-34.133 17.067-42.667 34.133-42.667h4.267c0 0 4.267 0 4.267 0l337.067 42.667c21.333 4.267 42.667 4.267 42.667 42.667v853.333c4.267 0 4.267 38.4-38.4 42.667zM384 106.667h-170.667v682.667h170.667v-682.667zM512 362.667c0-12.8-8.533-21.333-21.333-21.333s-21.333 8.533-21.333 21.333v170.667c0 12.8 8.533 21.333 21.333 21.333s21.333-8.533 21.333-21.333v-170.667z" />
<glyph unicode="&#xe941;" glyph-name="pushlink_bridgev1" horiz-adv-x="1055" d="M502.691 78.841c25.333 66.842 123.307 55.244 123.307 55.244l-171.531 270.116c-50.971 1.831-91.565 43.646-91.565 94.922 0 52.497 42.425 95.227 95.227 95.227 52.497 0 95.227-42.425 95.227-95.227 0-15.871-3.968-30.827-10.683-43.951 10.988-17.703 32.353-52.192 55.244-89.428l18.313-29.911c-21.976 36.015-2.747 63.18 16.176 71.115 42.73 27.775 65.316-15.566 65.316-15.566l16.176-26.554c-16.176 26.554-14.65 49.75 8.546 63.18 0 0 14.65 10.377 28.69 8.241 15.566-2.442 36.015-18.923 59.822-60.128 0.916-1.831 1.831-3.357 2.747-4.883-7.325 18.008-18.313 60.433 19.534 79.051 37.236 15.871 57.381-9.462 57.381-9.462s6.715-9.767 17.092-25.638c5.494 28.385 8.241 57.381 8.241 87.292-0.305 252.719-205.41 457.519-458.129 457.519-253.024 0-457.824-204.8-457.824-457.824s204.8-457.824 457.824-457.824c14.040 0 27.775 0.61 41.509 1.831-4.273 11.903-0.305 25.943 3.357 32.658zM457.824 756.726c19.839 0 36.015-16.176 36.015-36.015s-16.176-36.015-36.015-36.015c-19.839 0-36.015 16.176-36.015 36.015s16.176 36.015 36.015 36.015zM243.257 466.16c-19.839 0-36.015 16.176-36.015 36.015s16.176 36.015 36.015 36.015c19.839 0 36.015-16.176 36.015-36.015s-16.176-36.015-36.015-36.015zM300.027 624.262c-19.839 0-36.015 16.176-36.015 36.015s16.176 36.015 36.015 36.015c19.839 0 36.015-16.176 36.015-36.015s-16.176-36.015-36.015-36.015zM460.266 488.136c32.353 19.534 51.276 8.546 62.264-3.663 0.916 4.578 1.526 9.462 1.526 14.345 0 36.626-29.606 66.537-66.537 66.537-36.626 0-66.537-29.606-66.537-66.537 0-29.606 19.534-54.634 46.088-63.18-4.273 15.871-3.052 36.626 23.196 52.497z" />
<glyph unicode="&#xe942;" glyph-name="recreation" d="M844.8 768h-635.733c-106.667 0-209.067-85.333-209.067-192v-332.8c0-68.267 64-115.2 128-115.2 46.933 0 93.867 29.867 110.933 72.533l59.733 183.467h426.667l81.067-183.467c25.6-42.667 55.467-68.267 102.4-68.267 68.267 0 115.2 46.933 115.2 110.933v332.8c0 106.667-76.8 192-179.2 192zM170.667 597.333v-42.667h-42.667v42.667h-42.667v42.667h42.667v42.667h42.667v-42.667h42.667v-42.667h-42.667zM277.333 426.667c-34.133 0-64 29.867-64 64s29.867 64 64 64 64-29.867 64-64-29.867-64-64-64zM746.667 426.667c-34.133 0-64 29.867-64 64s29.867 64 64 64 64-29.867 64-64-29.867-64-64-64z" />
<glyph unicode="&#xe943;" glyph-name="RWL021" d="M806.4 960h-588.8c-8.533 0-12.8-4.267-12.8-12.8v-998.4c0-8.533 4.267-12.8 12.8-12.8h593.067c8.533 0 12.8 4.267 12.8 12.8v998.4c-4.267 8.533-8.533 12.8-17.067 12.8zM640 68.267c0-4.267 0-4.267 0 0h-256c0 0 0 0 0 0v187.733h256v-187.733zM640 315.733h-256v102.4h256v-102.4zM640 477.867h-256v93.867h256v-93.867zM640 631.467h-256v196.267c0 0 0 0 0 0h256c0 0 0 0 0 0v-196.267z" />
<glyph unicode="&#xe944;" glyph-name="SML001" d="M651.776 448c0-77.196-62.58-139.776-139.776-139.776s-139.776 62.58-139.776 139.776c0 77.196 62.58 139.776 139.776 139.776s139.776-62.58 139.776-139.776zM1024 149.333v597.333c0 117.803-95.488 213.333-213.333 213.333h-597.333c-117.76 0-213.248-95.445-213.333-213.163v-597.675c0.085-117.717 95.573-213.163 213.333-213.163h597.333c117.845 0 213.333 95.531 213.333 213.333zM512 797.952c19.712 0 35.712-16 35.712-35.669s-16-35.712-35.712-35.712c-19.669 0-35.669 16.043-35.669 35.712s16 35.669 35.669 35.669zM512 226.133c-122.325 0-221.867 99.499-221.867 221.867s99.541 221.867 221.867 221.867c122.368 0 221.867-99.499 221.867-221.867s-99.499-221.867-221.867-221.867z" />
<glyph unicode="&#xe945;" glyph-name="SWT001" d="M512 960c-281.6 0-512-230.4-512-512s230.4-512 512-512 512 230.4 512 512c0 281.6-230.4 512-512 512zM234.667 315.733c-72.533 0-132.267 59.733-132.267 132.267s59.733 132.267 132.267 132.267 132.267-59.733 132.267-132.267-55.467-132.267-132.267-132.267zM512 46.933c-72.533 0-132.267 59.733-132.267 132.267s59.733 132.267 132.267 132.267c72.533 0 132.267-59.733 132.267-132.267s-59.733-132.267-132.267-132.267zM750.933 320c-46.933 12.8-89.6 51.2-98.133 98.133-8.533 38.4 0 81.067 25.6 115.2 25.6 29.867 64 51.2 102.4 51.2 8.533 0 21.333 0 29.867-4.267 46.933-12.8 89.6-51.2 98.133-98.133 8.533-38.4 0-81.067-25.6-115.2-29.867-42.667-81.067-59.733-132.267-46.933z" />
<glyph unicode="&#xe946;" glyph-name="terrace" d="M170.667 362.667v-85.333h294.4l-247.467-341.333h106.667l187.733 264.533 192-264.533h102.4l-243.2 341.333h290.133v85.333zM0 657.067c0-42.667 38.4-85.333 85.333-85.333s85.333 42.667 85.333 85.333c0-42.667 38.4-85.333 85.333-85.333s85.333 42.667 85.333 85.333c0-42.667 38.4-85.333 85.333-85.333 17.067 0 29.867 4.267 42.667 12.8v-179.2h85.333v179.2c12.8-8.533 25.6-12.8 42.667-12.8 46.933 0 85.333 42.667 85.333 85.333 0-42.667 38.4-85.333 85.333-85.333s85.333 42.667 85.333 85.333c0-42.667 38.4-85.333 85.333-85.333s85.333 42.667 85.333 85.333l-512 302.933-512-302.933z" />
<glyph unicode="&#xe947;" glyph-name="bathroom" d="M981.333 362.667h-128v435.2c0 85.333-59.733 162.133-145.067 162.133s-153.6-85.333-153.6-170.667v0c-68.267-4.267-132.267-25.6-170.667-64v-21.333h384v21.333c-38.4 34.133-102.4 59.733-170.667 64v0c0 64 51.2 128 110.933 128s102.4-55.467 102.4-119.467v-435.2h-768c-25.6 0-42.667-17.067-42.667-42.667s17.067-42.667 42.667-42.667h8.533l29.867-251.733c4.267-29.867 29.867-46.933 59.733-46.933h29.867v-42.667h42.667v42.667h597.333v-42.667h42.667v42.667h29.867c29.867 0 55.467 17.067 64 46.933l29.867 251.733h4.267c25.6 0 42.667 17.067 42.667 42.667s-17.067 42.667-42.667 42.667z" />
<glyph unicode="&#xe948;" glyph-name="dining" d="M554.667 17.067v298.667c21.333 4.267 38.4 8.533 55.467 12.8 110.933 38.4 174.933 157.867 153.6 273.067l-76.8 358.4h-349.867l-76.8-358.4c-25.6-115.2 38.4-234.667 153.6-273.067 17.067-4.267 38.4-12.8 55.467-12.8v-298.667c-42.667-12.8-81.067-42.667-102.4-81.067h294.4c-25.6 38.4-64 68.267-106.667 81.067zM439.467 418.133c-68.267 21.333-110.933 85.333-98.133 157.867h341.333c12.8-72.533-34.133-136.533-102.4-157.867-25.6-8.533-46.933-12.8-72.533-12.8-21.333 0-46.933 4.267-68.267 12.8z" />
<glyph unicode="&#xe949;" glyph-name="garden" d="M870.4 550.4c-46.933 0-110.933-8.533-166.4-21.333 51.2 29.867 102.4 72.533 132.267 102.4 76.8 76.8 81.067 136.533 38.4 179.2s-106.667 38.4-179.2-38.4c-34.133-34.133-72.533-81.067-102.4-132.267 12.8 59.733 21.333 123.733 21.333 166.4 0 106.667-42.667 153.6-102.4 153.6s-102.4-46.933-102.4-153.6c0-46.933 8.533-110.933 21.333-166.4-29.867 46.933-68.267 98.133-102.4 132.267-72.533 76.8-136.533 81.067-179.2 38.4s-38.4-106.667 38.4-179.2c34.133-34.133 81.067-72.533 132.267-102.4-55.467 12.8-119.467 21.333-166.4 21.333-106.667 0-153.6-42.667-153.6-102.4s46.933-102.4 153.6-102.4c46.933 0 110.933 8.533 166.4 21.333-51.2-29.867-102.4-72.533-132.267-102.4-76.8-76.8-81.067-136.533-38.4-179.2s106.667-38.4 179.2 38.4c34.133 34.133 72.533 81.067 102.4 132.267-12.8-59.733-21.333-123.733-21.333-166.4 0-106.667 38.4-153.6 102.4-153.6s102.4 46.933 102.4 153.6c0 46.933-8.533 110.933-21.333 166.4 29.867-51.2 72.533-102.4 102.4-132.267 76.8-76.8 136.533-81.067 179.2-38.4s38.4 106.667-38.4 179.2c-34.133 34.133-81.067 72.533-132.267 102.4 59.733-12.8 123.733-21.333 166.4-21.333 106.667 0 153.6 38.4 153.6 102.4s-46.933 102.4-153.6 102.4zM512 320c-72.533 0-128 55.467-128 128s55.467 128 128 128 128-55.467 128-128-55.467-128-128-128z" />
<glyph unicode="&#xe94a;" glyph-name="hallway" d="M85.333-64h85.333v85.333h170.667v640h85.333v-699.733c0-17.067 17.067-29.867 29.867-25.6l290.133 51.2c12.8 4.267 21.333 12.8 21.333 25.6v691.2c0 12.8-8.533 25.6-21.333 25.6l-290.133 38.4c-17.067 0-29.867-8.533-29.867-25.6v-38.4h-128v-640h-128v810.667h682.667v-938.667h85.333v1024h-853.333v-1024zM512 405.333c0 12.8 8.533 25.6 21.333 25.6s21.333-12.8 21.333-25.6v-106.667c0-12.8-8.533-25.6-21.333-25.6s-21.333 12.8-21.333 25.6v106.667z" />
<glyph unicode="&#xe94b;" glyph-name="nursery" d="M896 704l-384 256-384-256v-170.667c-72.533-8.533-128-72.533-128-149.333 0-81.067 68.267-149.333 149.333-149.333s149.333 68.267 149.333 149.333c0 76.8-55.467 136.533-128 149.333v98.133c12.8-8.533 25.6-12.8 42.667-12.8 46.933 0 85.333 42.667 85.333 85.333 0-42.667 46.933-85.333 106.667-85.333 25.6 0 46.933 8.533 64 17.067v-384l-21.333-46.933-149.333-17.067 106.667-102.4-25.6-149.333 132.267 68.267 132.267-68.267-25.6 145.067 106.667 102.4-149.333 21.333-64 136.533v362.667c0-42.667 46.933-85.333 106.667-85.333s106.667 42.667 106.667 85.333c0-42.667 38.4-85.333 85.333-85.333 17.067 0 29.867 4.267 42.667 12.8v-132.267l-128-221.867h298.667l-128 221.867v204.8z" />
<glyph unicode="&#xe94c;" glyph-name="office" d="M42.667 618.667h128v-42.667h-128v42.667zM0 64h213.333v725.333h-213.333v-725.333zM712.533 635.733l123.733 25.6 8.533-42.667-123.733-25.6-8.533 42.667zM640 776.533l145.067-712.533 209.067 42.667-145.067 712.533-209.067-42.667zM341.333 746.667h213.333v-85.333h-213.333v85.333zM298.667 64h298.667v896h-298.667v-896zM0 21.333h1024v-85.333h-1024v85.333z" />
<glyph unicode="&#xe94d;" glyph-name="toilet" d="M490.667 106.667c0 0 8.533 42.667 72.533 42.667h34.133c405.333 0 388.267 256 388.267 256h-772.267v-469.333h243.2l29.867 153.6 4.267 17.067zM42.667 917.333v-426.667c0-25.6 17.067-42.667 42.667-42.667h298.667c25.6 0 42.667 17.067 42.667 42.667v426.667c0 25.6-17.067 42.667-42.667 42.667h-298.667c-25.6 0-42.667-17.067-42.667-42.667zM682.667 490.667h-213.333v-42.667h490.667c12.8 0 21.333 8.533 21.333 21.333s-8.533 21.333-21.333 21.333h-277.333z" />
<glyph unicode="&#xe94e;" glyph-name="pushlink_bridgev2" horiz-adv-x="1070" d="M445.34 411.384c-17.526 30.044-7.511 69.164 22.846 86.689 30.044 17.526 69.164 7.511 86.689-22.846l17.213-27.54c6.572 15.335 10.328 31.922 10.328 49.76 0 68.851-56.020 124.87-124.87 124.87s-124.87-56.020-124.87-124.87c0-68.851 56.020-124.87 124.87-124.87 4.381 0 8.45 0.313 12.831 0.626l-24.724 37.868c0 0 0 0.313-0.313 0.313zM1060.929 205.457c-0.313 0.939-0.626 1.878-1.252 2.817l-138.954 229.711c-0.313 0.313-0.626 0.939-0.939 1.252v289.174c0 2.504-0.313 58.21-28.479 114.543-26.289 53.516-83.247 117.046-202.797 117.046h-456.919c-2.191 0-58.21-0.313-114.543-28.479-53.516-26.601-117.046-83.56-117.046-203.11v-456.919c0-2.191 0.313-58.21 28.479-114.543 26.601-53.516 83.56-117.046 203.11-117.046h271.022c0.939-2.504 2.191-4.694 3.443-6.885 5.946-9.389 19.403-20.342 48.196-18.778 53.203 2.817 135.511-5.007 191.531-36.303 35.051-19.403 75.423-41.936 122.054-41.936 27.853 0 57.897 7.824 90.132 29.418 61.653 40.372 139.267 109.222 102.963 240.039zM657.839 835.443c20.029 0 36.303-16.274 36.303-36.303s-16.274-36.303-36.303-36.303c-20.029 0-36.303 16.274-36.303 36.303s16.274 36.303 36.303 36.303zM457.545 835.443c20.029 0 36.303-16.274 36.303-36.303s-16.274-36.303-36.303-36.303c-20.029 0-36.303 16.274-36.303 36.303s16.274 36.303 36.303 36.303zM220.949 799.139c0 20.029 16.274 36.303 36.303 36.303s36.303-16.274 36.303-36.303c0-20.029-16.274-36.303-36.303-36.303s-36.303 15.961-36.303 36.303zM282.601 497.447c0 96.391 78.553 174.944 174.944 174.944s174.944-78.553 174.944-174.944c0-36.303-11.267-70.103-30.357-98.269l-47.257 76.049c-17.526 30.044-56.645 40.372-86.689 22.846s-40.372-56.645-22.846-86.689c0 0 0.313-0.313 0.313-0.313l54.142-83.247c-13.457-3.443-27.853-5.32-42.249-5.32-96.391 0-174.944 78.553-174.944 174.944zM945.76-16.117c-70.103-46.005-124.87-22.22-189.34 13.457-60.088 33.487-144.587 41.936-203.423 38.807-10.015-0.626-23.159 0.626-28.479 8.45-5.007 7.824-2.191 20.968 0.939 27.227 0.313 0.313 0.313 0.939 0.626 1.252 21.594 58.523 110.787 49.76 111.726 49.447 4.381-0.626 8.45 1.565 10.641 5.32s2.191 8.137 0 11.892l-184.020 282.914c-11.267 19.716-4.694 44.753 15.022 56.020 19.716 11.579 44.753 4.694 56.645-15.022l149.594-240.978c3.13-5.32 10.015-6.885 15.335-3.443 5.32 3.13 6.885 10.015 3.443 15.335l-66.66 107.658c-0.313 0.939-0.626 2.191-1.252 3.13-5.633 9.702-7.511 20.655-5.007 30.983 2.191 10.015 8.45 18.465 16.9 23.472 17.839 10.641 41.936 3.13 53.516-16.587 0 0 0-0.313 0.313-0.313l75.11-120.489c2.191-3.443 5.633-5.32 9.389-5.32 1.878 0 4.068 0.626 5.946 1.565 5.32 3.13 6.885 10.015 3.443 15.335l-59.775 95.765c-0.313 0.939-0.626 1.565-0.939 2.191-5.633 9.702-7.824 20.655-5.633 30.983 1.878 9.702 7.198 17.526 15.022 21.907 16.587 9.702 39.12 1.565 50.699-18.152l67.599-110.474c2.191-3.443 5.633-5.32 9.389-5.32 1.878 0 4.068 0.626 5.633 1.565 5.32 3.13 6.885 10.015 3.756 15.335l-46.944 76.988c-0.313 0.313-0.313 0.939-0.626 1.252-11.579 19.716-5.633 44.44 13.144 55.394s43.188 3.756 54.768-15.961l138.015-228.46c24.098-88.254-5.007-154.601-94.513-213.125z" />
<glyph unicode="&#xf00c;" glyph-name="check" d="M954.857 636.571c0-14.286-5.714-28.571-16-38.857l-491.429-491.429c-10.286-10.286-24.571-16-38.857-16s-28.571 5.714-38.857 16l-284.571 284.571c-10.286 10.286-16 24.571-16 38.857s5.714 28.571 16 38.857l77.714 77.714c10.286 10.286 24.571 16 38.857 16s28.571-5.714 38.857-16l168-168.571 374.857 375.429c10.286 10.286 24.571 16 38.857 16s28.571-5.714 38.857-16l77.714-77.714c10.286-10.286 16-24.571 16-38.857z" />
<glyph unicode="&#xf00d;" glyph-name="close, remove, times" horiz-adv-x="805" d="M741.714 204.571c0-14.286-5.714-28.571-16-38.857l-77.714-77.714c-10.286-10.286-24.571-16-38.857-16s-28.571 5.714-38.857 16l-168 168-168-168c-10.286-10.286-24.571-16-38.857-16s-28.571 5.714-38.857 16l-77.714 77.714c-10.286 10.286-16 24.571-16 38.857s5.714 28.571 16 38.857l168 168-168 168c-10.286 10.286-16 24.571-16 38.857s5.714 28.571 16 38.857l77.714 77.714c10.286 10.286 24.571 16 38.857 16s28.571-5.714 38.857-16l168-168 168 168c10.286 10.286 24.571 16 38.857 16s28.571-5.714 38.857-16l77.714-77.714c10.286-10.286 16-24.571 16-38.857s-5.714-28.571-16-38.857l-168-168 168-168c10.286-10.286 16-24.571 16-38.857z" />
<glyph unicode="&#xf077;" glyph-name="up" d="M961.714 199.429l-94.857-94.286c-14.286-14.286-37.143-14.286-51.429 0l-303.429 303.429-303.429-303.429c-14.286-14.286-37.143-14.286-51.429 0l-94.857 94.286c-14.286 14.286-14.286 37.714 0 52l424 423.429c14.286 14.286 37.143 14.286 51.429 0l424-423.429c14.286-14.286 14.286-37.714 0-52z" />
<glyph unicode="&#xf078;" glyph-name="down" d="M961.714 498.286l-424-423.429c-14.286-14.286-37.143-14.286-51.429 0l-424 423.429c-14.286 14.286-14.286 37.714 0 52l94.857 94.286c14.286 14.286 37.143 14.286 51.429 0l303.429-303.429 303.429 303.429c14.286 14.286 37.143 14.286 51.429 0l94.857-94.286c14.286-14.286 14.286-37.714 0-52z" />
<glyph unicode="&#xf10c;" glyph-name="circle-o" horiz-adv-x="878" d="M438.857 758.857c-171.429 0-310.857-139.429-310.857-310.857s139.429-310.857 310.857-310.857 310.857 139.429 310.857 310.857-139.429 310.857-310.857 310.857zM877.714 448c0-242.286-196.571-438.857-438.857-438.857s-438.857 196.571-438.857 438.857 196.571 438.857 438.857 438.857v0c242.286 0 438.857-196.571 438.857-438.857z" />
<glyph unicode="&#xf111;" glyph-name="circle" horiz-adv-x="878" d="M877.714 448c0-242.286-196.571-438.857-438.857-438.857s-438.857 196.571-438.857 438.857 196.571 438.857 438.857 438.857 438.857-196.571 438.857-438.857z" />
<glyph unicode="&#xf204;" glyph-name="off" horiz-adv-x="1170" d="M658.286 448c0 161.143-131.429 292.571-292.571 292.571s-292.571-131.429-292.571-292.571 131.429-292.571 292.571-292.571 292.571 131.429 292.571 292.571zM1097.143 448c0 161.143-131.429 292.571-292.571 292.571h-220.571c89.143-66.857 147.429-173.143 147.429-292.571s-58.286-225.714-147.429-292.571h220.571c161.143 0 292.571 131.429 292.571 292.571zM1170.286 448c0-201.714-164-365.714-365.714-365.714h-438.857c-201.714 0-365.714 164-365.714 365.714s164 365.714 365.714 365.714h438.857c201.714 0 365.714-164 365.714-365.714z" />
<glyph unicode="&#xf205;" glyph-name="on" horiz-adv-x="1170" d="M0 448c0 201.714 164 365.714 365.714 365.714h438.857c201.714 0 365.714-164 365.714-365.714s-164-365.714-365.714-365.714h-438.857c-201.714 0-365.714 164-365.714 365.714zM804.571 155.429c161.143 0 292.571 131.429 292.571 292.571s-131.429 292.571-292.571 292.571-292.571-131.429-292.571-292.571 131.429-292.571 292.571-292.571z" />
<glyph unicode="&#xf234;" glyph-name="yes" horiz-adv-x="1170" d="M402.286 448c-121.143 0-219.429 98.286-219.429 219.429s98.286 219.429 219.429 219.429 219.429-98.286 219.429-219.429-98.286-219.429-219.429-219.429zM950.857 374.857h201.143c9.714 0 18.286-8.571 18.286-18.286v-109.714c0-9.714-8.571-18.286-18.286-18.286h-201.143v-201.143c0-9.714-8.571-18.286-18.286-18.286h-109.714c-9.714 0-18.286 8.571-18.286 18.286v201.143h-201.143c-9.714 0-18.286 8.571-18.286 18.286v109.714c0 9.714 8.571 18.286 18.286 18.286h201.143v201.143c0 9.714 8.571 18.286 18.286 18.286h109.714c9.714 0 18.286-8.571 18.286-18.286v-201.143zM530.286 246.857c0-40 33.143-73.143 73.143-73.143h146.286v-136c-28-20.571-63.429-28.571-97.714-28.571h-499.429c-91.429 0-152.571 54.857-152.571 148 0 129.143 30.286 327.429 197.714 327.429 9.143 0 15.429-4 22.286-9.714 56-42.857 110.286-69.714 182.286-69.714s126.286 26.857 182.286 69.714c6.857 5.714 13.143 9.714 22.286 9.714 48.571 0 91.429-18.286 124-54.857h-127.429c-40 0-73.143-33.143-73.143-73.143v-109.714z" />
<glyph unicode="&#xf235;" glyph-name="no" horiz-adv-x="1165" d="M402.286 448c-121.143 0-219.429 98.286-219.429 219.429s98.286 219.429 219.429 219.429 219.429-98.286 219.429-219.429-98.286-219.429-219.429-219.429zM1017.714 265.143l142.286-142.286c3.429-3.429 5.143-8 5.143-13.143 0-4.571-1.714-9.143-5.143-12.571l-77.714-77.714c-3.429-3.429-8-5.143-12.571-5.143-5.143 0-9.714 1.714-13.143 5.143l-142.286 142.286-142.286-142.286c-3.429-3.429-8-5.143-13.143-5.143-4.571 0-9.143 1.714-12.571 5.143l-77.714 77.714c-3.429 3.429-5.143 8-5.143 12.571 0 5.143 1.714 9.714 5.143 13.143l142.286 142.286-142.286 142.286c-3.429 3.429-5.143 8-5.143 13.143 0 4.571 1.714 9.143 5.143 12.571l77.714 77.714c3.429 3.429 8 5.143 12.571 5.143 5.143 0 9.714-1.714 13.143-5.143l142.286-142.286 142.286 142.286c3.429 3.429 8 5.143 13.143 5.143 4.571 0 9.143-1.714 12.571-5.143l77.714-77.714c3.429-3.429 5.143-8 5.143-12.571 0-5.143-1.714-9.714-5.143-13.143zM733.143 265.143l-103.429-103.429c-13.714-13.714-21.143-32.571-21.143-52 0-18.857 7.429-37.714 21.143-51.429l47.429-47.429c-8-1.143-16.571-1.714-25.143-1.714h-499.429c-91.429 0-152.571 54.857-152.571 148 0 129.143 30.286 327.429 197.714 327.429 9.143 0 15.429-4 22.286-9.714 54.857-43.429 110.857-69.714 182.286-69.714s127.429 26.286 182.286 69.714c6.857 5.714 13.143 9.714 22.286 9.714 10.857 0 21.714-1.143 32.571-3.429-18.857-18.286-30.857-33.143-30.857-60.571 0-19.429 7.429-38.286 21.143-52z" />
</font>
</defs>
</svg>
